<svg xmlns="http://www.w3.org/2000/svg" viewBox="0 0 120 120" role="img" aria-label="Logo INNOV'ACTION">
  <defs>
    <linearGradient id="bulbGrad" x1="0" y1="0" x2="1" y2="1">
      <stop offset="0" stop-color="#FFB347"/>
      <stop offset="1" stop-color="#F5821F"/>
    </linearGradient>
  </defs>
  <!-- Flèches circulaires : bleu, vert, orange -->
  <g fill="none" stroke-linecap="round">
    <path d="M 22 82 A 40 40 0 0 1 24 40" stroke="#1D5FA0" stroke-width="9"/>
    <path d="M 24 40 l -8 2 M 24 40 l -1 9" stroke="#1D5FA0" stroke-width="6"/>
    <path d="M 38 22 A 40 40 0 0 1 88 28" stroke="#3DA52E" stroke-width="9"/>
    <path d="M 88 28 l 2 -9 M 88 28 l -9 1" stroke="#3DA52E" stroke-width="6"/>
    <path d="M 96 44 A 40 40 0 0 1 44 97" stroke="#F5821F" stroke-width="9"/>
    <path d="M 44 97 l 9 2 M 44 97 l 2 -9" stroke="#F5821F" stroke-width="6"/>
  </g>
  <!-- Rayons de l'ampoule -->
  <g stroke="#F5821F" stroke-width="3.4" stroke-linecap="round">
    <line x1="60" y1="30" x2="60" y2="22"/>
    <line x1="46" y1="34" x2="42" y2="27"/>
    <line x1="74" y1="34" x2="78" y2="27"/>
    <line x1="38" y1="45" x2="31" y2="41"/>
    <line x1="82" y1="45" x2="89" y2="41"/>
  </g>
  <!-- Ampoule -->
  <path d="M 60 36 c -11 0 -18 8 -18 17 c 0 7 4 11 7 15 c 2 3 3 5 3 8 l 16 0 c 0 -3 1 -5 3 -8 c 3 -4 7 -8 7 -15 c 0 -9 -7 -17 -18 -17 z" fill="url(#bulbGrad)"/>
  <path d="M 51 48 c 1 -5 5 -8 9 -8" stroke="#FFD9A8" stroke-width="3" fill="none" stroke-linecap="round"/>
  <!-- Culot -->
  <g stroke="#1D5FA0" stroke-width="4" stroke-linecap="round">
    <line x1="52" y1="82" x2="68" y2="82"/>
    <line x1="53" y1="89" x2="67" y2="89"/>
    <line x1="56" y1="96" x2="64" y2="96"/>
  </g>
</svg>
